<?xml version="1.0" encoding="UTF-8"?>
<svg width="1200pt" height="1200pt" version="1.1" viewBox="0 0 1200 1200" xmlns="http://www.w3.org/2000/svg">
 <path d="m1083.8 725.28 33.359-33.359c50.879-50.879 50.879-133.2 0-184.08l-20.16-20.16c-8.6406-8.6406-12-21.359-8.6406-33.359l7.6797-27.359c19.441-69.121-20.879-141.12-90-160.56l-20.16-5.7617c-12.238-3.3594-21.359-13.199-24-25.68l-4.5586-20.398c-7.4414-34.078-27.602-63.121-56.641-81.84-29.281-18.719-64.078-25.199-97.922-17.762l-46.078 10.078c-11.281 2.3984-23.039-0.96094-31.441-9.1211l-33.359-33.359c-24.48-24.48-57.359-38.16-91.922-38.16-34.801 0-67.441 13.441-91.922 38.16l-20.16 20.16c-8.6406 8.6406-21.602 12-33.359 8.6406l-27.355-7.4414c-33.359-9.3594-68.641-5.2812-98.879 11.762-30.238 17.039-52.078 44.879-61.68 78.238l-5.7617 20.16c-3.3594 12.238-13.199 21.359-25.68 24l-18.48 4.0781c-34.32 7.4414-65.277 28.078-84.238 58.32-18.238 29.039-24.238 63.359-17.039 96.961l10.078 46.078c2.3984 11.281-0.96094 23.039-9.1211 31.441l-33.359 33.359c-50.641 50.641-50.641 133.2 0 184.08l20.16 20.16c8.6406 8.6406 12 21.359 8.6406 33.359l-7.1992 25.199c-9.6016 34.32-5.7617 71.281 11.762 102 17.039 29.281 44.398 50.883 77.52 60.004 24.48 6.9609 43.441 26.879 48.719 51.84 7.4414 34.078 27.602 63.121 56.641 81.84 29.281 18.719 64.078 25.199 97.922 17.762l46.078-10.078c11.281-2.3984 23.039 0.96094 31.441 9.1211l31.922 31.922c25.199 25.199 59.281 39.84 94.801 39.602 34.32-0.23828 66.48-13.922 90.719-38.16l20.16-20.16c8.6406-8.6406 21.359-12 33.359-8.6406l27.359 7.6797c33.359 9.3594 68.641 5.2812 98.879-11.762 30.238-17.039 52.078-44.879 61.68-78.238l5.7617-20.16c3.3594-12.238 13.199-21.359 25.68-24l20.398-4.5586c70.078-15.121 114.72-84.48 99.602-154.8l-10.078-46.078c-2.8867-11.051 0.71484-22.809 8.875-30.969zm-404.16 135.12h-150c-25.922 0-48.238-20.16-49.199-46.32-0.96094-27.359 20.879-49.68 48-49.68 14.641 0 26.398-11.762 26.398-26.398v-282.96l-18.961 6.7188c-25.68 8.8789-53.52-5.0391-61.68-31.199-7.6797-24.961 6.7188-51.359 31.199-59.762l81.602-28.32c18.48-6.4805 39.359-1.1992 52.559 14.398 7.4414 8.8789 11.281 20.16 11.281 31.922v348.24c0 15.359 12.48 27.602 27.602 27.602 25.922 0 48.238 20.16 49.199 46.32 0.96094 26.883-20.879 49.441-48 49.441z"/>
</svg>
